<svg xmlns="http://www.w3.org/2000/svg" viewBox="0 0 160 100"><path d="M8 99c-3.8 0-7-3.2-7-7V8c0-3.8 3.2-7 7-7h144c3.8 0 7 3.2 7 7v84c0 3.8-3.2 7-7 7H8z" fill-rule="evenodd" clip-rule="evenodd" fill="#fff"/><path d="M152 2c3.3 0 6 2.7 6 6v84c0 3.3-2.7 6-6 6H8c-3.3 0-6-2.7-6-6V8c0-3.3 2.7-6 6-6h144zm0-2H8C3.6 0 0 3.6 0 8v84c0 4.4 3.6 8 8 8h144c4.4 0 8-3.6 8-8V8c0-4.4-3.6-8-8-8z" fill="#e6e6e6"/><g transform="translate(-17.944 -13.026) scale(1.82152)"><linearGradient id="a" gradientUnits="userSpaceOnUse" x1="-25.515" y1="153.317" x2="-11.243" y2="153.317" gradientTransform="matrix(2.0492 0 0 -2.0492 115.871 351.244)"><stop offset="0" stop-color="#007940"/><stop offset=".229" stop-color="#00873f"/><stop offset=".743" stop-color="#40a737"/><stop offset="1" stop-color="#5cb531"/></linearGradient><path d="M66.8 38.8h4.3c.7-.1 1.3-.8 1.3-1.7 0-.9-.6-1.5-1.3-1.7h-4.3v3.4z" fill="url(#a)"/><linearGradient id="b" gradientUnits="userSpaceOnUse" x1="-25.515" y1="154.529" x2="-11.255" y2="154.529" gradientTransform="matrix(2.0492 0 0 -2.0492 115.871 351.244)"><stop offset="0" stop-color="#007940"/><stop offset=".229" stop-color="#00873f"/><stop offset=".743" stop-color="#40a737"/><stop offset="1" stop-color="#5cb531"/></linearGradient><path d="M70.1 15.1c-3.6 0-6.5 2.9-6.5 6.5v6.8h9.8c2.1.1 3.6 1.2 3.6 3 0 1.5-1 2.7-3 3v.1c2.1.1 3.7 1.3 3.7 3.1 0 2-1.8 3.3-4.1 3.3h-10v13.2h9.5c3.6 0 6.5-2.9 6.5-6.5V15.1h-9.5z" fill="url(#b)"/><linearGradient id="c" gradientUnits="userSpaceOnUse" x1="-25.515" y1="155.863" x2="-11.243" y2="155.863" gradientTransform="matrix(2.0492 0 0 -2.0492 115.871 351.244)"><stop offset="0" stop-color="#007940"/><stop offset=".229" stop-color="#00873f"/><stop offset=".743" stop-color="#40a737"/><stop offset="1" stop-color="#5cb531"/></linearGradient><path d="M71.8 31.8c0-.9-.6-1.4-1.3-1.5h-3.8v3.1h3.8c.7-.1 1.3-.7 1.3-1.6z" fill="url(#c)"/><linearGradient id="d" gradientUnits="userSpaceOnUse" x1="-43.056" y1="154.537" x2="-28.563" y2="154.537" gradientTransform="matrix(2.0492 0 0 -2.0492 115.871 351.244)"><stop offset="0" stop-color="#1f286f"/><stop offset=".475" stop-color="#004e94"/><stop offset=".826" stop-color="#0066b1"/><stop offset="1" stop-color="#006fbc"/></linearGradient><path d="M34.2 15.1c-3.6 0-6.5 2.9-6.5 6.5v16c1.8.9 3.7 1.5 5.6 1.5 2.3 0 3.5-1.4 3.5-3.2v-7.6h5.6v7.5c0 2.9-1.8 5.3-8 5.3-3.8 0-6.7-.8-6.7-.8V54h9.5c3.6 0 6.5-2.9 6.5-6.5V15.1h-9.5z" fill="url(#d)"/><linearGradient id="e" gradientUnits="userSpaceOnUse" x1="-34.327" y1="154.52" x2="-20.252" y2="154.52" gradientTransform="matrix(2.0492 0 0 -2.0492 115.871 351.244)"><stop offset="0" stop-color="#6c2c2f"/><stop offset=".173" stop-color="#882730"/><stop offset=".573" stop-color="#be1833"/><stop offset=".859" stop-color="#dc0436"/><stop offset="1" stop-color="#e60039"/></linearGradient><path d="M52.1 15.1c-3.6 0-6.5 2.9-6.5 6.5v8.5c1.6-1.4 4.5-2.3 9.1-2.1 2.5.1 5.1.8 5.1.8v2.8c-1.3-.7-2.9-1.3-4.9-1.4-3.5-.3-5.6 1.5-5.6 4.5s2.1 4.8 5.6 4.5c2-.1 3.6-.8 4.9-1.4v2.8s-2.6.7-5.1.8c-4.6.2-7.5-.7-9.1-2.1v15h9.5c3.6 0 6.5-2.9 6.5-6.5V15.1h-9.5z" fill="url(#e)"/></g></svg>